<svg width="297mm" height="297mm" version="1.1" viewBox="0 0 297 297" xmlns="http://www.w3.org/2000/svg"><g><g transform="matrix(1.5456 0 0 1.5456 -87.995 -74.632)" style="fill:#557f9f"><path d="m136.88 190.67 2.8585 6.0393h0.0994l9.1394-30.615-2.919-6.1682zm0 0-1.8027 6.0393h4.6612zm9.1783-30.744 2.919 6.1682 11.077-37.105-2.9191-6.1682zm11.077-37.105 2.9191 6.1682 9.1778-30.744-2.919-6.1682zm9.1778-30.744 2.919 6.1682 1.8701-6.2647h-4.7606zm26.989 57.029-2.2529-4.7606h-23.728l2.2529 4.7606zm-33.248-20.116-11.077 37.105 14.511 30.663h28.636l-22.551-47.651-2.2529-4.7606zm33.248 20.116h3.5065v-4.7606h-5.7594zm-22.2-57.125-1.8701 6.2647 21.817 46.1h5.7594v4.7606h-3.5065l22.551 47.651h28.637l-49.585-104.78zm-57.199 0 6.7586 14.281h28.636l-6.7581-14.281zm32.155 67.946 11.077-37.105-5.5837-11.799h-28.637zm-84.52-67.946 49.585 104.78h28.637l-0.0222-0.0472h-4.6612l1.8027-6.0393-46.705-98.69z" style="fill:#557f9f;stroke-width:.25734"/></g></g></svg>
