<svg width="297mm" height="297mm" version="1.1" viewBox="0 0 297 297" xml:space="preserve" xmlns="http://www.w3.org/2000/svg"><g transform="translate(-7.6031e-6 5.0273)" fill="#557f9f"><text x="148.45062" y="209.34134" fill="#557f9f" font-size="14.111px" stroke-width=".26458" word-spacing="2.6458px" xml:space="preserve"><tspan x="151.32576" y="209.34134" fill="#557f9f" font-family="'Roboto Serif'" font-size="14.111px" font-weight="300" stroke-width=".26458" text-align="center" text-anchor="middle" word-spacing="2.6458px">VENTURE INTO ADVANCEMENT </tspan></text><g transform="translate(-4.5128 -11.879)"><path d="m136.07 193 3.0024 6.3433h0.10439l9.5994-32.156-3.066-6.4787zm0 0-1.8934 6.3433h4.8958zm9.6402-32.292 3.066 6.4787 11.634-38.973-3.066-6.4787zm11.634-38.973 3.066 6.4787 9.6397-32.291-3.066-6.4787zm9.6397-32.291 3.066 6.4787 1.9642-6.58h-5.0002zm28.347 59.899-2.3663-5.0002h-24.922l2.3663 5.0002zm-34.921-21.129-11.634 38.973 15.241 32.206h30.078l-23.686-50.05-2.3663-5.0002zm34.921 21.129h3.683v-5.0002h-6.0492zm-23.317-60-1.9642 6.58 22.915 48.42h6.0492v5.0002h-3.683l23.686 50.05h30.078l-52.081-110.05zm-60.078 0 7.0988 15h30.078l-7.0983-15zm33.774 71.365 11.634-38.973-5.8648-12.393h-30.078zm-88.774-71.365 52.081 110.05h30.078l-0.0233-0.0496h-4.8958l1.8934-6.3433-49.055-103.66z" fill="#557f9f" stroke-width=".27029"/></g></g></svg>
